<svg version="1.1" id="Layer_1"
    xmlns="http://www.w3.org/2000/svg" x="0" y="0" viewBox="0 0 497.3 99.2" xml:space="preserve">
    <style>.st0{fill:#212222}</style>
    <g id="Layer_1_1_">
        <path class="st0" d="M17.7 26.5c1.6-1.8 7-5.8 15.2-5.8 16.2 0 27.5 12.2 27.5 29.4 0 17.4-10.3 29.5-26.5 29.5-8.6 0-13.8-4.3-15-5.7v24.3H1V22.1h16.7v4.4zm12.7 37.4c7.3 0 12.1-5.7 12.1-13.9s-4.9-13.7-12.1-13.7c-7.7 0-12.1 6.2-12.1 13.7 0 8.9 5 13.9 12.1 13.9zM66.3 1h17.8v77.2H66.3V1zM112 42.2c3.7 0 7.4.6 10.8 2v-2c0-3.4-2.8-6.1-8.6-6.1-4.9.1-9.7 1.3-14.1 3.5l-6.6-12c6.8-4.5 14.7-7 22.9-7 19.3 0 24.3 9.9 24.3 22.8v34.8h-16l-1-3.1c-2.9 2.9-7 4.5-12.7 4.5-11 0-20.8-6.6-20.8-18.8 0-11.2 8.5-18.6 21.8-18.6zm3.6 23.8c4.3 0 7.5-2 7.5-5.8s-3.3-6-7.6-6-7.5 2.3-7.5 6 3.4 5.8 7.6 5.8zM182.4 44.8c0-5.2-3.1-8-7.4-8-4.9 0-7.7 3.5-7.7 8v33.5h-17.8V22.1h17.4v5.8c3.2-4.6 8.5-7.3 14.1-7.2 17.5 0 19.2 15 19.2 26.4v31.1h-17.9l.1-33.4zM227.9 22.1h9.5v14.4h-9.5v20.6c0 4.9 3.3 6.1 7 6.1 1 0 2 0 3-.1v15.3c-2.2.5-4.5.7-6.8.6-13.3 0-21-6.1-21-22.8V36.5h-5.5V22.1h5.5V10.2H228l-.1 11.9zM240.8 70l10-9.7c3.3 3.2 7.8 5 12.4 4.9 3.4 0 5-1.1 5-3.1 0-6.4-25.7-3.6-25.7-24 0-10.8 9.4-17.3 21.6-17.3 10.7 0 16.8 5.1 20.1 9.6l-11.5 9.1c-1.7-1.7-4.9-4.4-9.3-4.4-2.6 0-4.1 1.1-4.1 2.8 0 7 25.9 3 25.9 23.3 0 11.4-10 18.5-22.9 18.5-10.6-.1-18.2-5.2-21.5-9.7zM403.7 78.2h-17.9V44.8c0-5-2.5-8-6.7-8s-6.9 2.9-6.9 8v33.5h-17.8V22.1h17.4v5.8c1.9-3.4 6.4-7.2 13.9-7.2 6.6 0 11.5 2.8 14.5 7.4 3.4-4.4 8.7-7.4 15.9-7.4 12.9 0 19 8.3 19 20.2v37.3h-17.8V44.8c0-5-2.6-8-6.9-8s-6.8 3.2-6.8 8l.1 33.4zM459.5 54.8c.4 5 5.2 9.3 11.9 9.3 4.7 0 9-2.2 11.8-6l11.8 9.1c-1.6 3.3-9.3 12.4-23.8 12.4-18.5 0-29.8-12.7-29.8-29.3s11.1-29.6 27.6-29.6c17.9 0 27.6 11.4 27.6 30.6 0 1.1 0 2.2-.1 3.5h-37zm.5-11.3h18.2c-.2-4.5-3.5-8.3-9.1-8.3-5.9 0-8.7 4.3-9.1 8.3z"/>
        <path d="M329.9 35.4l-9.9 1.8c-2 .3-3.8 1-5.5 2-2.1 1.2-3.8 2.8-5.1 4.8-4.4 6.3-3.3 13.5 2.5 17.5 1.8 1.3 3.9 2.1 6.1 2.2 4.6.2 9-2.1 11.5-6 1.3-1.9 2.2-4 2.5-6.3.2-1.9.1-3.8-.2-5.7l-1.9-10.3z" fill="none"/>
        <path d="M348.2 48.7c-.2-2.4-.5-4.6-1.3-8.5l-1.6-8.9-2.6-14.3-23 4.2c-3.5.7-7 1.6-10.5 2.7-5.7 2-10.6 5.8-14 10.8-4.2 5.8-5.9 13.1-4.8 20.2 1.2 7.6 5.3 14.4 11.4 19-2.6 4.4-4.7 8-4.8 8.1l5.3 3.1c0-.1 2.2-3.7 4.8-8.1 3.3 1.5 6.9 2.4 10.5 2.6 2.9.2 5.7 0 8.5-.5l.1-.1h.1c14-3.4 23.2-16.3 21.9-30.3zm-16.1 2.8c-.3 2.3-1.2 4.4-2.5 6.3-2.5 3.9-6.9 6.2-11.5 6-2.2-.2-4.3-.9-6.1-2.2-5.8-4-6.9-11.2-2.5-17.5 1.3-2 3.1-3.6 5.1-4.8 1.7-1 3.6-1.7 5.5-2l9.9-1.8 1.9 10.4c.3 1.8.3 3.7.2 5.6z" fill="#627a46"/>
    </g>
</svg>